<?xml version="1.0" standalone="no"?> <!DOCTYPE svg PUBLIC "-//W3C//DTD SVG 1.0//EN" "http://www.w3.org/TR/2001/REC-SVG-20010904/DTD/svg10.dtd" > <svg xmlns="http://www.w3.org/2000/svg" width="100%" height="100%">
<defs >
<font id="helveticalt85heavy" horiz-adv-x="507" ><font-face
    font-family="HelveticaNeue LT 65 Medium"
    units-per-em="1000"
    panose-1="2 0 9 3 4 0 0 2 0 4"
    ascent="0"
    descent="0"
    alphabetic="0" />
<missing-glyph horiz-adv-x="315" />
<glyph unicode=" " glyph-name="space" horiz-adv-x="315" />
<glyph unicode="!" glyph-name="exclam" horiz-adv-x="296" d="M55 186H241V0H55V186ZM236 537L190 236H107L61 537V714H236V537Z" />
<glyph unicode="&quot;" glyph-name="quotedbl" horiz-adv-x="500" d="M62 714H206V354H62V714ZM294 714H438V354H294V714Z" />
<glyph unicode="#" glyph-name="numbersign" horiz-adv-x="630" d="M288 405L273 295H354L369 405H288ZM531 190H454L428 0H313L339 190H258L232 0H117L143 190H69V295H158L173 405H99V510H188L214 697H329L303 510H384L410 697H525L499 510H561V405H484L469 295H531V190Z"
/>
<glyph unicode="$" glyph-name="dollar" horiz-adv-x="630" d="M345 728Q395 725 441 710T523 667T581 596T603 495H417Q419 533 398 553T345 581V445Q362 440 381 436T419 426Q458 415 495 400T561 361T608 303T626 220Q626 157 603 114T540 42T451 1T345 -15V-105H298V-15Q239
-13 186 1T93 46T29 123T5 236H191Q194 182 222 158T298 128V285Q284 289 268 293T235 302Q197 313 160 328T93 366T45 424T26 508Q26 566 50 607T113 674T200 714T298 729V819H345V728ZM298 585Q283 585 268 582T241 571T220 551T212 520Q212 496 236 482T298
457V585ZM345 129Q361 130 378 134T409 146T431 167T440 198Q440 227 414 243T345 272V129Z" />
<glyph unicode="%" glyph-name="percent" horiz-adv-x="1019" d="M719 183Q719 168 720 149T726 113T742 83T774 71Q794 71 805 83T821 112T827 149T828 183Q828 198 827 217T821 253T805 283T774 295Q753 295 742 283T726 254T720 217T719 183ZM602 183Q602 224
613 259T645 320T698 360T774 375Q818 375 850 361T904 322T935 262T945 183Q945 141 936 106T906 45T853 5T774 -9Q729 -9 697 5T643 45T612 106T602 183ZM75 514Q75 555 86 590T118 651T171 691T247 706Q291 706 323 692T377 653T408 593T418 514Q418 472 409
437T379 376T326 336T247 322Q202 322 170 336T116 376T85 437T75 514ZM260 -27L664 724H763L359 -27H260ZM192 514Q192 499 193 480T199 444T215 414T247 402Q267 402 278 414T294 443T300 480T301 514Q301 529 300 548T294 584T278 614T247 626Q226 626 215 614T199
585T193 548T192 514Z" />
<glyph unicode="&amp;" glyph-name="ampersand" horiz-adv-x="722" d="M334 466Q360 482 380 502T400 554Q400 580 383 594T340 609Q317 609 301 594T284 556Q284 527 300 507T334 466ZM477 60Q430 22 381 4T272 -15Q224 -15 181 0T106 44T54 113T34 203Q34 241
47 273T82 330T134 376T196 411Q170 440 152 473T133 548Q133 590 150 623T196 680T261 716T337 729Q377 729 413 716T478 679T522 621T539 544Q539 481 505 438T417 367L491 278Q512 310 517 348H663Q658 300 638 255T584 174L734 0H527L477 60ZM281 299Q268 293
254 284T227 262T206 236T198 205Q198 186 206 171T227 146T258 129T292 123Q316 123 341 139T387 174L281 299Z" />
<glyph unicode="&apos;" glyph-name="quotesingle" horiz-adv-x="296" d="M76 714H220V354H76V714Z" />
<glyph unicode="(" glyph-name="parenleft" horiz-adv-x="296" d="M305 729Q254 625 224 510T195 274Q193 158 223 44T305 -174H161Q130 -114 107 -61T69 46T45 154T36 274Q37 341 45 397T68 507T107 615T161 729H305Z" />
<glyph unicode=")" glyph-name="parenright" horiz-adv-x="296" d="M135 729Q166 669 189 615T227 508T251 398T260 274Q259 210 251 155T228 46T189 -60T135 -174H-9Q42 -70 72 44T101 274Q103 395 73 510T-9 729H135Z" />
<glyph unicode="*" glyph-name="asterisk" horiz-adv-x="444" d="M374 396L295 337L220 444L146 337L68 395L147 499L25 537L56 630L172 586V714H271V586L387 630L418 537L297 499L374 396Z" />
<glyph unicode="+" glyph-name="plus" horiz-adv-x="600" d="M228 506H372V325H552V181H372V0H228V181H48V325H228V506Z" />
<glyph unicode="," glyph-name="comma" horiz-adv-x="316" d="M65 186H251V21Q251 -33 233 -69T186 -127T126 -160T65 -174V-94Q106 -83 124 -61T147 0H65V186Z" />
<glyph unicode="-" glyph-name="hyphen" horiz-adv-x="407" d="M48 200V344H359V200H48Z" />
<glyph unicode="." glyph-name="period" horiz-adv-x="316" d="M65 186H251V0H65V186Z" />
<glyph unicode="/" glyph-name="slash" horiz-adv-x="407" d="M260 729H416L147 -15H-9L260 729Z" />
<glyph unicode="0" glyph-name="zero" horiz-adv-x="630" d="M310 -9Q236 -9 184 21T100 100T52 214T37 349Q37 419 52 483T99 597T184 676T310 706Q386 706 440 677T528 598T578 484T594 349Q594 279 579 215T529 101T440 21T310 -9ZM315 129Q357 129 380 150T414
205T428 276T430 349Q430 383 428 421T415 492T380 546T315 568Q274 568 252 547T218 493T204 422T201 349Q201 315 203 277T217 205T251 151T315 129Z" />
<glyph unicode="1" glyph-name="one" horiz-adv-x="630" d="M105 428V553Q142 552 177 559T242 583T289 628T311 697H452V0H272V428H105Z" />
<glyph unicode="2" glyph-name="two" horiz-adv-x="630" d="M32 0Q33 67 61 127T141 232Q186 271 234 299T323 354Q363 380 388 407T414 470Q414 511 390 534T324 557Q290 557 268 546T233 515T214 470T208 416H49Q45 481 63 534T117 626T205 685T323 706Q375
706 422 693T505 652T562 583T584 485Q584 435 568 399T524 335T460 285T386 238Q366 226 350 216T320 196T292 173T260 144H591V0H32Z" />
<glyph unicode="3" glyph-name="three" horiz-adv-x="630" d="M257 426Q268 427 279 426T302 425Q321 425 341 428T377 439T404 461T415 498Q415 532 386 550T315 568Q263 568 235 543T207 469H48Q49 527 70 571T126 646T210 691T314 706Q359 706 405 696T489
663T550 603T574 513Q574 490 568 468T550 426T519 394T477 377V375Q537 359 566 318T596 215Q596 156 572 114T507 44T417 4T314 -9Q253 -9 200 7T107 55T47 136T29 253H188Q185 129 313 129Q335 129 355 134T391 149T416 176T426 215Q426 244 416 262T390 291T350
306T302 310Q291 310 280 310T257 308V426Z" />
<glyph unicode="4" glyph-name="four" horiz-adv-x="630" d="M341 299V524H339L163 299H341ZM597 299V155H506V0H336V155H31V314L343 697H506V299H597Z" />
<glyph unicode="5" glyph-name="five" horiz-adv-x="630" d="M192 216Q192 195 202 179T229 152T265 135T304 129Q354 129 387 159T420 241Q420 292 392 324T310 356Q274 356 247 346T199 303H45L113 697H553V553H244L218 426H220Q246 452 281 464T356 476Q410
476 453 461T526 417T573 346T590 249Q590 184 568 136T508 56T417 7T304 -9Q247 -9 197 2T110 40T49 110T22 216H192Z" />
<glyph unicode="6" glyph-name="six" horiz-adv-x="630" d="M426 516Q421 537 412 549T391 570Q379 577 366 579T342 581Q305 581 280 565T238 522T213 465T203 404H205Q231 447 274 462T368 478Q416 478 457 460T529 411T576 338T594 248Q594 186 572 138T512
58T423 8T315 -9Q238 -9 185 21T99 100T52 213T37 344Q37 417 55 483T110 598T205 677T342 706Q388 706 429 694T502 659T555 600T585 516H426ZM207 237Q207 192 237 161T317 129Q344 129 365 137T402 161T426 195T435 236Q435 285 405 319T316 353Q292 353 272
344T238 319T215 282T207 237Z" />
<glyph unicode="7" glyph-name="seven" horiz-adv-x="630" d="M60 697H567V560Q556 551 538 529T499 477T457 411T418 335Q375 242 361 156T345 0H162Q163 31 169 70T186 152T213 242T254 335Q272 375 293 410T334 473T370 518T394 541V543H60V697Z" />
<glyph unicode="8" glyph-name="eight" horiz-adv-x="630" d="M316 581Q295 581 276 577T242 563T219 538T210 501Q210 478 219 462T243 437T277 423T316 419Q335 419 354 423T388 437T413 462T423 501Q423 522 414 537T390 562T356 576T316 581ZM29 205Q29 235
38 263T66 313T108 350T163 370V372Q112 384 86 423T59 514Q59 566 83 602T144 662T228 695T318 706Q363 706 408 696T490 662T550 602T574 513Q574 489 567 466T547 424T514 391T471 372V370Q531 358 566 315T602 205Q602 147 577 107T512 41T420 3T317 -9Q266
-9 215 1T122 37T55 103T29 205ZM317 314Q294 314 273 308T236 290T209 258T199 214Q199 188 209 170T235 139T272 122T316 116Q338 116 358 121T395 138T422 168T432 214Q432 262 399 288T317 314Z" />
<glyph unicode="9" glyph-name="nine" horiz-adv-x="630" d="M205 181Q208 164 217 152T239 132Q252 124 267 120T299 116Q333 116 357 130T396 170T419 226T428 293H426Q414 273 397 259T359 235T315 222T270 218Q218 218 175 236T102 285T54 360T37 455Q37 511
58 557T116 636T201 687T304 706Q380 706 435 679T525 606T577 497T594 365Q594 290 578 222T525 103T430 21T289 -9Q193 -9 129 37T46 181H205ZM308 343Q335 343 356 352T393 376T416 412T424 457Q424 504 393 536T307 568Q283 568 263 559T228 535T205 501T196
459Q196 410 225 377T308 343Z" />
<glyph unicode=":" glyph-name="colon" horiz-adv-x="316" d="M65 186H251V0H65V186ZM251 333H65V519H251V333Z" />
<glyph unicode=";" glyph-name="semicolon" horiz-adv-x="316" d="M251 333H65V519H251V333ZM65 186H251V21Q251 -33 233 -69T186 -127T126 -160T65 -174V-94Q106 -83 124 -61T147 0H65V186Z" />
<glyph unicode="&lt;" glyph-name="less" horiz-adv-x="600" d="M46 182V324L554 514V360L247 254V252L554 146V-8L46 182Z" />
<glyph unicode="=" glyph-name="equal" horiz-adv-x="600" d="M552 57H48V201H552V57ZM552 305H48V449H552V305Z" />
<glyph unicode="&gt;" glyph-name="greater" horiz-adv-x="600" d="M46 146L353 252V254L46 360V514L554 324V182L46 -8V146Z" />
<glyph unicode="?" glyph-name="question" horiz-adv-x="574" d="M182 186H368V0H182V186ZM31 480Q32 539 51 585T104 664T186 712T293 729Q340 729 385 717T465 679T521 615T543 525Q543 489 535 463T510 417T471 380T420 345Q400 332 388 322T368 301T357 274T354
236H196V286Q196 315 203 336T222 374T248 403T277 425Q292 435 306 445T332 466T350 491T357 524Q357 553 338 569T292 585Q250 585 229 562T206 499V480H31Z" />
<glyph unicode="@" glyph-name="at" horiz-adv-x="800" d="M526 536H620L576 298Q574 292 573 283T571 264T572 249T583 243Q599 243 615 251T645 278T667 326T676 395Q676 455 657 500T602 576T519 621T414 637Q352 637 302 616T216 558T161 469T142 356Q142
290 163 239T223 151T314 96T431 77Q488 77 535 92T620 136H718Q664 62 590 24T423 -15Q343 -15 273 12T149 89T66 206T35 356Q35 436 65 504T147 622T268 700T417 729Q483 729 545 708T657 648T735 552T765 427Q765 370 751 326T715 250T664 197T609 162T557 144T518
138Q490 138 474 150T456 187H454Q439 167 416 152T358 137Q326 137 296 151T243 190T207 248T193 318Q193 362 207 403T247 476T311 527T394 546Q432 546 463 533T517 488L526 536ZM386 252Q433 252 460 283T488 357Q488 393 467 415T409 438Q387 438 369 429T338
406T318 372T310 334Q310 299 329 276T386 252Z" />
<glyph unicode="A" glyph-name="A" horiz-adv-x="704" d="M258 714H447L714 0H520L476 128H227L182 0H-9L258 714ZM270 266H432L353 516H351L270 266Z" />
<glyph unicode="B" glyph-name="B" horiz-adv-x="722" d="M250 433H394Q406 433 419 436T444 448T462 469T470 501Q470 540 447 555T394 570H250V433ZM64 714H398Q444 715 490 708T573 681T633 626T656 535Q656 487 630 450T562 391Q619 374 652 329T685 222Q685
158 663 116T604 48T515 11T407 0H64V714ZM250 149H399Q443 149 471 167T499 229Q499 276 470 294T399 313H250V149Z" />
<glyph unicode="C" glyph-name="C" horiz-adv-x="759" d="M538 459Q530 513 492 541T394 569Q349 569 318 551T266 503T237 435T228 357Q228 317 237 279T266 211T317 163T394 145Q460 145 496 180T538 277H724Q720 208 694 154T625 62T524 5T398 -15Q317 -15
251 14T139 93T67 211T42 357Q42 435 67 502T138 620T251 700T398 729Q456 729 513 711T617 659T692 574T724 459H538Z" />
<glyph unicode="D" glyph-name="D" horiz-adv-x="759" d="M250 160H338Q391 161 428 172T489 208T524 269T535 361Q535 459 485 506T338 554H250V160ZM64 714H371Q453 714 518 690T628 620T697 509T721 360Q721 272 697 205T628 93T517 24T371 0H64V714Z" />
<glyph unicode="E" glyph-name="E" horiz-adv-x="685" d="M64 714H633V565H250V440H600V296H250V160H643V0H64V714Z" />
<glyph unicode="F" glyph-name="F" horiz-adv-x="611" d="M64 714H590V565H250V419H544V275H250V0H64V714Z" />
<glyph unicode="G" glyph-name="G" horiz-adv-x="778" d="M723 0H603L592 78Q574 52 550 35T499 6T445 -10T393 -15Q312 -15 246 14T134 93T62 211T37 357Q37 435 62 502T133 620T246 700T393 729Q448 729 503 714T604 668T679 587T716 471H530Q525 517 486 543T389
569Q344 569 313 551T261 503T232 435T223 357Q223 317 232 279T261 211T312 163T389 145Q458 145 501 174T553 253H423V391H723V0Z" />
<glyph unicode="H" glyph-name="H" horiz-adv-x="741" d="M62 714H248V454H493V714H679V0H493V294H248V0H62V714Z" />
<glyph unicode="I" glyph-name="I" horiz-adv-x="315" d="M64 714H250V0H64V714Z" />
<glyph unicode="J" glyph-name="J" horiz-adv-x="593" d="M528 226Q528 -15 278 -15Q207 -15 159 4T82 59T41 144T28 253V284H203V218Q203 183 221 164T275 145Q307 145 324 165T342 238V714H528V226Z" />
<glyph unicode="K" glyph-name="K" horiz-adv-x="741" d="M64 714H250V440L485 714H716L452 433L749 0H518L326 300L250 220V0H64V714Z" />
<glyph unicode="L" glyph-name="L" horiz-adv-x="611" d="M64 714H250V160H583V0H64V714Z" />
<glyph unicode="M" glyph-name="M" horiz-adv-x="926" d="M65 714H339L462 238H464L587 714H861V0H686V542H684L534 0H392L242 542H240V0H65V714Z" />
<glyph unicode="N" glyph-name="N" horiz-adv-x="741" d="M62 714H253L501 274H503V714H678V0H487L239 445H237V0H62V714Z" />
<glyph unicode="O" glyph-name="O" horiz-adv-x="778" d="M223 357Q223 317 232 279T261 211T312 163T389 145Q434 145 465 163T517 211T546 279T555 357Q555 397 546 435T517 503T466 551T389 569Q344 569 313 551T261 503T232 435T223 357ZM37 357Q37 435 60
502T129 620T239 700T389 729Q473 729 538 700T649 621T717 503T741 357Q741 279 718 212T649 94T539 14T389 -15Q305 -15 240 14T129 93T61 211T37 357Z" />
<glyph unicode="P" glyph-name="P" horiz-adv-x="685" d="M250 382H375Q419 382 447 402T475 471Q475 522 447 543T375 565H250V382ZM64 714H403Q453 714 499 702T582 663T639 591T661 484Q661 418 643 371T591 295T510 252T403 238H250V0H64V714Z" />
<glyph unicode="Q" glyph-name="Q" horiz-adv-x="778" d="M453 291L523 223Q540 252 547 286T555 357Q555 397 546 435T517 503T466 551T389 569Q344 569 313 551T261 503T232 435T223 357Q223 317 232 279T261 211T312 163T389 145Q411 145 426 149L370 204L453
291ZM653 -74L555 22Q483 -15 389 -15Q305 -15 240 14T129 93T61 211T37 357Q37 435 60 502T129 620T239 700T389 729Q473 729 538 700T649 621T717 503T741 357Q741 280 719 214T652 97L738 14L653 -74Z" />
<glyph unicode="R" glyph-name="R" horiz-adv-x="722" d="M250 404H406Q448 404 470 425T492 488Q492 528 465 546T398 565H250V404ZM64 714H428Q475 714 520 703T600 668T656 605T678 513Q678 455 651 406T566 334V332Q594 325 613 307T644 265T662 214T670 161Q671
150 672 127T676 79T685 32T700 0H516Q510 9 506 25T500 58T497 91T495 114Q493 141 489 167T474 214T444 247T391 260H250V0H64V714Z" />
<glyph unicode="S" glyph-name="S" horiz-adv-x="667" d="M209 240Q212 177 248 153T344 129Q365 129 385 133T422 145T448 168T458 202Q458 226 441 241T394 267T329 286T253 306Q215 317 178 332T111 370T63 428T44 512Q44 570 70 611T139 679T233 717T335 729Q388
729 439 716T531 674T596 603T621 499H435Q436 523 426 539T400 566T362 580T320 585Q305 585 289 582T260 572T239 554T230 524Q230 503 247 490T294 467T361 449T437 430Q476 419 513 404T579 365T626 307T644 224Q644 156 618 110T548 37T448 -3T333 -15Q271
-15 216 -1T117 44T49 123T23 240H209Z" />
<glyph unicode="T" glyph-name="T" horiz-adv-x="648" d="M630 554H417V0H231V554H18V714H630V554Z" />
<glyph unicode="U" glyph-name="U" horiz-adv-x="741" d="M681 295Q681 140 607 63T370 -15Q208 -15 134 62T59 295V714H245V284Q245 215 273 180T370 145Q439 145 467 180T495 284V714H681V295Z" />
<glyph unicode="V" glyph-name="V" horiz-adv-x="648" d="M428 0H214L-11 714H183L323 183H325L465 714H659L428 0Z" />
<glyph unicode="W" glyph-name="W" horiz-adv-x="963" d="M766 0H580L482 492H480L382 0H193L0 714H186L287 192H289L394 714H569L674 192H676L777 714H963L766 0Z" />
<glyph unicode="X" glyph-name="X" horiz-adv-x="704" d="M246 375L13 714H232L352 492L479 714H691L460 375L712 0H486L352 238L206 0H-8L246 375Z" />
<glyph unicode="Y" glyph-name="Y" horiz-adv-x="667" d="M427 266V0H241V266L-19 714H192L334 424L476 714H687L427 266Z" />
<glyph unicode="Z" glyph-name="Z" horiz-adv-x="667" d="M24 152L390 554H46V714H630V570L255 160H643V0H24V152Z" />
<glyph unicode="[" glyph-name="bracketleft" horiz-adv-x="370" d="M69 729H363V585H228V-30H363V-174H69V729Z" />
<glyph unicode="\" glyph-name="backslash" horiz-adv-x="407" d="M416 -15H260L-9 729H147L416 -15Z" />
<glyph unicode="]" glyph-name="bracketright" horiz-adv-x="370" d="M301 -174H7V-30H142V585H7V729H301V-174Z" />
<glyph unicode="^" glyph-name="asciicircum" horiz-adv-x="600" d="M47 332L209 697H391L553 332H393L300 570L206 332H47Z" />
<glyph unicode="_" glyph-name="underscore" horiz-adv-x="500" d="M0 -125V-75H500V-125H0Z" />
<glyph unicode="`" glyph-name="grave" horiz-adv-x="296" d="M242 575H122L-35 724H145L242 575Z" />
<glyph unicode="a" glyph-name="a" horiz-adv-x="593" d="M50 359Q52 410 74 444T131 498Q166 518 208 526T296 534Q342 534 385 528T463 502T517 449T538 360V133Q538 100 540 66T558 0H387Q382 12 381 24T377 49Q344 14 299 0T206 -15Q169 -15 137 -6T80 23T43
72T29 142Q29 184 43 212T81 258T136 286T200 302T267 312T331 322Q353 327 364 336T376 370Q376 385 368 395T348 411T322 421T294 424Q221 424 209 359H50ZM199 149Q199 117 220 104T270 90Q331 90 354 126T374 243Q356 232 327 228T269 215Q240 208 220 194T199
149Z" />
<glyph unicode="b" glyph-name="b" horiz-adv-x="630" d="M325 404Q308 404 290 398T256 375T231 332T221 265Q221 197 243 156T324 115Q352 115 371 128T403 163T420 211T426 265Q426 290 421 314T404 359T373 391T325 404ZM57 714H227V462H229Q281 534 377 534Q432
534 473 512T541 453T582 369T596 271Q596 216 583 165T541 73T469 9T364 -15Q272 -15 221 60H219V0H57V714Z" />
<glyph unicode="c" glyph-name="c" horiz-adv-x="593" d="M395 329Q395 345 388 359T370 383T343 398T312 404Q276 404 255 390T222 355T206 306T202 251Q202 226 207 202T225 158T257 127T303 115Q348 115 371 138T400 204H565Q559 152 537 111T481 42T401 0T304
-15Q245 -15 196 4T110 58T53 142T32 251Q32 313 51 365T105 454T191 513T304 534Q352 534 396 521T476 483T533 419T560 329H395Z" />
<glyph unicode="d" glyph-name="d" horiz-adv-x="630" d="M571 0H409V60H407Q356 -15 264 -15Q203 -15 159 9T87 73T46 164T32 271Q32 322 45 369T86 453T155 512T251 534Q346 534 399 463H401V714H571V0ZM306 404Q277 404 257 392T225 359T208 315T202 265Q202
238 207 212T225 164T257 129T306 115Q337 115 356 128T387 163T403 209T407 260Q407 288 402 314T384 360T353 392T306 404Z" />
<glyph unicode="e" glyph-name="e" horiz-adv-x="611" d="M202 218Q204 164 234 132T318 100Q349 100 376 114T415 157H574Q562 112 537 80T477 26T401 -5T316 -15Q253 -15 201 3T111 57T53 144T32 261Q32 321 54 371T114 457T204 513T312 534Q382 534 434 510T520
442T570 342T583 218H202ZM413 313Q411 357 383 388T312 419Q267 419 239 390T202 313H413Z" />
<glyph unicode="f" glyph-name="f" horiz-adv-x="370" d="M94 409H12V519H94Q94 575 104 612T138 672T199 704T291 714Q311 714 332 713T373 711V591Q349 594 327 594Q298 594 281 586T264 542V519H366V409H264V0H94V409Z" />
<glyph unicode="g" glyph-name="g" horiz-adv-x="611" d="M559 63Q559 31 553 -11T521 -91T443 -155T300 -182Q255 -182 212 -176T135 -151T76 -101T45 -16H215Q221 -49 244 -61Q265 -72 306 -72Q336 -72 354 -62T381 -36T392 3T395 49V98H393Q370 62 334 42T255
22Q196 22 153 42T82 96T41 178T27 280Q27 332 42 378T86 458T157 513T255 534Q349 534 394 454H396V519H559V63ZM398 273Q398 298 393 321T375 363T344 393T296 404Q268 404 249 393T219 363T202 322T197 274Q197 251 202 229T220 190T250 163T295 152Q322 152
341 162T373 188T392 227T398 273Z" />
<glyph unicode="h" glyph-name="h" horiz-adv-x="630" d="M57 714H227V448H229Q239 468 256 484T294 511T340 528T387 534Q452 534 489 513T545 462T569 396T574 333V0H404V251Q404 278 404 303Q404 329 397 349T372 381T319 394Q295 394 278 385T249 360T233
324T227 283V0H57V714Z" />
<glyph unicode="i" glyph-name="i" horiz-adv-x="296" d="M233 584H63V714H233V584ZM63 519H233V0H63V519Z" />
<glyph unicode="j" glyph-name="j" horiz-adv-x="296" d="M233 584H63V714H233V584ZM233 0Q233 -49 223 -82T192 -136T139 -165T61 -174H-25V-36H9Q35 -35 49 -26T63 12V519H233V0Z" />
<glyph unicode="k" glyph-name="k" horiz-adv-x="593" d="M57 714H227V346L382 519H579L389 323L603 0H398L271 209L227 166V0H57V714Z" />
<glyph unicode="l" glyph-name="l" horiz-adv-x="296" d="M63 714H233V0H63V714Z" />
<glyph unicode="m" glyph-name="m" horiz-adv-x="926" d="M57 519H222V448H224Q247 487 286 510T373 534Q422 534 462 516T524 450Q555 492 594 513T686 534Q748 534 784 513T839 459T863 387T869 310V0H699V305Q699 347 680 370T628 394Q601 394 585 384T561
356T550 311T548 254V0H378V295Q378 341 364 367T314 394Q268 394 248 363T227 253V0H57V519Z" />
<glyph unicode="n" glyph-name="n" horiz-adv-x="630" d="M57 519H222V448H224Q236 468 254 484T294 511T340 528T387 534Q452 534 489 513T545 462T569 396T574 333V0H404V251Q404 278 404 303Q404 329 397 349T372 381T319 394Q295 394 278 385T249 360T233
324T227 283V0H57V519Z" />
<glyph unicode="o" glyph-name="o" horiz-adv-x="611" d="M32 259Q32 317 52 367T108 455T194 513T305 534Q365 534 415 513T502 455T559 368T579 259Q579 200 559 150T503 64T416 6T305 -15Q245 -15 195 6T108 63T52 150T32 259ZM202 259Q202 234 207 209T224
162T255 128T305 115Q335 115 355 128T387 162T404 208T409 259Q409 284 404 309T387 356T355 390T305 404Q275 404 256 391T224 356T207 310T202 259Z" />
<glyph unicode="p" glyph-name="p" horiz-adv-x="630" d="M57 519H219V459H221Q272 534 364 534Q425 534 469 510T541 446T582 355T596 248Q596 197 583 150T542 66T473 7T377 -15Q282 -15 229 56H227V-174H57V519ZM325 404Q308 404 290 398T256 375T231 332T221
265Q221 197 243 156T324 115Q352 115 371 128T403 163T420 211T426 265Q426 290 421 314T404 359T373 391T325 404Z" />
<glyph unicode="q" glyph-name="q" horiz-adv-x="630" d="M571 -174H401V57H399Q346 -15 251 -15Q196 -15 155 7T87 66T46 150T32 248Q32 303 45 354T87 446T159 510T264 534Q356 534 407 459H409V519H571V-174ZM202 254Q202 229 207 205T224 160T255 128T303
115Q320 115 338 121T372 144T397 187T407 255Q407 281 403 307T387 355T356 390T306 404Q277 404 257 391T225 356T208 308T202 254Z" />
<glyph unicode="r" glyph-name="r" horiz-adv-x="426" d="M63 519H228V428H230Q249 478 290 503T386 529Q396 529 406 528T426 525V370Q409 375 394 377T361 380Q329 380 306 370T266 343T241 304T233 257V0H63V519Z" />
<glyph unicode="s" glyph-name="s" horiz-adv-x="556" d="M189 171Q189 151 196 137T217 113Q229 104 245 100T280 95Q292 95 306 98T332 107T352 124T360 150Q360 165 351 174T330 190T303 199T277 205Q237 215 195 223T117 247T59 293T36 375Q36 422 58 452T116
501T193 526T273 534Q316 534 357 527T433 501T488 450T512 366H355Q355 397 333 411Q313 424 279 424Q268 424 256 423T232 418T214 406T206 385Q206 367 225 355T272 336T335 322T398 310Q437 302 462 285T503 248T524 207T530 170Q530 118 508 83T450 26T370
-5T281 -15Q235 -15 190 -7T110 23T52 81T27 171H189Z" />
<glyph unicode="t" glyph-name="t" horiz-adv-x="389" d="M370 409H265V173Q265 142 281 133T326 123Q337 123 348 124T370 125V0Q347 -1 324 -3T277 -5Q223 -5 188 4T132 34T103 90T95 178V409H9V519H95V676H265V519H370V409Z" />
<glyph unicode="u" glyph-name="u" horiz-adv-x="630" d="M573 0H408V71H406Q382 31 338 8T248 -15Q192 -15 155 0T96 45T65 115T56 207V519H226V218Q226 166 247 146T310 125Q324 125 340 130T370 148T393 184T403 241V519H573V0Z" />
<glyph unicode="v" glyph-name="v" horiz-adv-x="537" d="M366 0H170L-3 519H174L269 176H271L367 519H540L366 0Z" />
<glyph unicode="w" glyph-name="w" horiz-adv-x="833" d="M671 0H499L417 345H415L334 0H162L0 519H172L259 183H261L335 519H497L573 184H575L660 519H833L671 0Z" />
<glyph unicode="x" glyph-name="x" horiz-adv-x="537" d="M173 272L8 519H196L269 395L342 519H522L360 275L544 0H356L266 150L181 0H-7L173 272Z" />
<glyph unicode="y" glyph-name="y" horiz-adv-x="537" d="M340 -46Q325 -89 305 -114T259 -152T200 -170T123 -174H43V-36H102Q131 -36 150 -21T170 22Q170 32 165 51T152 90T138 128T127 158L-7 519H173L271 181H273L371 519H545L340 -46Z" />
<glyph unicode="z" glyph-name="z" horiz-adv-x="537" d="M22 132L281 389H43V519H497V390L238 130H516V0H22V132Z" />
<glyph unicode="{" glyph-name="braceleft" horiz-adv-x="370" d="M356 609H315Q297 609 286 603T270 587T264 566T262 544V380Q262 351 250 333T220 304T183 289T147 284V281Q163 280 182 277T219 263T249 232T262 176V11Q262 1 263 -10T270 -31T286 -47T315
-54H356V-174H238Q210 -174 186 -166T143 -140T114 -94T103 -26V147Q103 171 93 184T68 205T38 215T14 217V337Q23 337 38 339T67 347T92 365T103 398V586Q103 626 113 653T142 698T185 722T238 729H356V609Z" />
<glyph unicode="|" glyph-name="bar" horiz-adv-x="222" d="M39 786H183V-214H39V786Z" />
<glyph unicode="}" glyph-name="braceright" horiz-adv-x="370" d="M14 -54H55Q73 -54 84 -48T100 -32T106 -11T108 11V176Q108 212 120 232T150 262T187 276T223 281V284Q207 285 188 289T151 303T121 332T108 380V544Q108 554 107 565T100 586T84 602T55 609H14V729H132Q160
729 184 722T227 698T256 654T267 586V398Q267 377 277 365T302 347T332 339T356 337V217Q347 217 332 215T303 206T278 185T267 147V-26Q267 -66 257 -94T228 -140T185 -166T132 -174H14V-54Z" />
<glyph unicode="~" glyph-name="asciitilde" horiz-adv-x="600" d="M531 233Q520 217 508 202T481 174T448 155T406 147Q378 147 354 156T304 180Q280 194 252 204T189 215Q172 215 160 209T137 192T119 169T105 143L69 273Q77 289 88 304T115 332T149 351T194
359Q220 359 248 350T305 327Q333 315 360 303T407 291Q422 291 434 297T457 314T477 337T495 363L531 233Z" />
<glyph unicode="&#x80;" glyph-name="Euro" horiz-adv-x="630" d="M604 656L553 522Q475 571 412 571Q317 571 280 470H531L498 385H264Q262 365 262 350Q262 344 264 315H473L437 230H280Q307 123 416 123Q489 123 569 184V30Q500 -8 409 -8Q285 -8 207 68Q141
132 123 230H35L68 315H112Q112 320 112 331Q111 342 111 352Q111 372 113 385H35L68 470H125Q151 574 220 636Q299 706 421 706Q507 706 604 656Z" />
</font>
</defs>
</svg>
